HIERARCHY
ROOT Pelvis
{
	OFFSET 0.000000 0.000000 0.000000
	CHANNELS 6 Xposition Yposition Zposition Xrotation Yrotation Zrotation
	JOINT LeftUpLeg_virtual
	{
		OFFSET 0.000000 0.000000 0.000000
		CHANNELS 3 Xrotation Yrotation Zrotation
		JOINT LeftUpLeg
		{
			OFFSET 18.735201 -5.666702 -4.541200
			CHANNELS 3 Xrotation Yrotation Zrotation
			JOINT LeftLeg
			{
				OFFSET -0.021200 -31.938179 0.493100
				CHANNELS 3 Xrotation Yrotation Zrotation
				JOINT LeftFoot
				{
					OFFSET 0.021200 -31.938179 -4.336299
					CHANNELS 3 Xrotation Yrotation Zrotation
					JOINT LeftToeBase
					{
						OFFSET 0.943001 -26.722000 15.023500
						CHANNELS 3 Xrotation Yrotation Zrotation
						End Site
						{
							OFFSET 0 0 0
						}
					}
				}
			}
		}
	}
	JOINT RightUpLeg_virtual
	{
		OFFSET 0.000000 0.000000 0.000000
		CHANNELS 3 Xrotation Yrotation Zrotation
		JOINT RightUpLeg
		{
			OFFSET -18.735201 -5.666702 -4.541200
			CHANNELS 3 Xrotation Yrotation Zrotation
			JOINT RightLeg
			{
				OFFSET 0.018946 -31.938133 0.493100
				CHANNELS 3 Xrotation Yrotation Zrotation
				JOINT RightFoot
				{
					OFFSET -0.018946 -31.938126 -4.336299
					CHANNELS 3 Xrotation Yrotation Zrotation
					JOINT RightToeBase
					{
						OFFSET -0.943001 -26.722004 15.023500
						CHANNELS 3 Xrotation Yrotation Zrotation
						End Site
						{
							OFFSET 0 0 0
						}
					}
				}
			}
		}
	}
	JOINT Hips_virtual
	{
		OFFSET 0.000000 0.000000 0.000000
		CHANNELS 3 Xrotation Yrotation Zrotation
		JOINT Hips
		{
			OFFSET -0.000000 -0.000000 -0.000000
			CHANNELS 3 Xrotation Yrotation Zrotation
			JOINT Spine
			{
				OFFSET 0.000000 10.199997 -0.299500
				CHANNELS 3 Xrotation Yrotation Zrotation
				JOINT Spine1
				{
					OFFSET 0.000000 11.900002 -1.516600
					CHANNELS 3 Xrotation Yrotation Zrotation
					JOINT Spine2
					{
						OFFSET 0.000000 13.600006 -2.842500
						CHANNELS 3 Xrotation Yrotation Zrotation
						JOINT Neck_virtual
						{
							OFFSET 0.000000 0.000000 0.000000
							CHANNELS 3 Xrotation Yrotation Zrotation
							JOINT Neck
							{
								OFFSET 0.000000 9.624100 -2.890100
								CHANNELS 3 Xrotation Yrotation Zrotation
								JOINT Head
								{
									OFFSET 0.000000 14.068802 -1.351900
									CHANNELS 3 Xrotation Yrotation Zrotation
									End Site
									{
										OFFSET 0 0 0
									}
								}
							}
						}
						JOINT LeftShoulder_virtual
						{
							OFFSET 0.000000 0.000000 0.000000
							CHANNELS 3 Xrotation Yrotation Zrotation
							JOINT LeftShoulder
							{
								OFFSET 15.263000 10.923401 -0.547700
								CHANNELS 3 Xrotation Yrotation Zrotation
								JOINT LeftArm
								{
									OFFSET 25.438599 -2.830597 -13.032500
									CHANNELS 3 Xrotation Yrotation Zrotation
									JOINT LeftForeArm
									{
										OFFSET 29.960503 0.000000 0.000000
										CHANNELS 3 Xrotation Yrotation Zrotation
										JOINT LeftHand
										{
											OFFSET 27.849251 0.000000 0.000000
											CHANNELS 3 Xrotation Yrotation Zrotation
											End Site
											{
												OFFSET 0 0 0
											}
										}
									}
								}
							}
						}
						JOINT RightShoulder_virtual
						{
							OFFSET 0.000000 0.000000 0.000000
							CHANNELS 3 Xrotation Yrotation Zrotation
							JOINT RightShoulder
							{
								OFFSET -15.263000 10.923401 -0.547700
								CHANNELS 3 Xrotation Yrotation Zrotation
								JOINT RightArm
								{
									OFFSET -25.438599 -2.830597 -13.032500
									CHANNELS 3 Xrotation Yrotation Zrotation
									JOINT RightForeArm
									{
										OFFSET -29.960503 0.000000 0.000000
										CHANNELS 3 Xrotation Yrotation Zrotation
										JOINT RightHand
										{
											OFFSET -27.849251 0.000000 0.000000
											CHANNELS 3 Xrotation Yrotation Zrotation
											End Site
											{
												OFFSET 0 0 0
											}
										}
									}
								}
							}
						}
					}
				}
			}
		}
	}
}
MOTION
Frames: 6
Frame Time: 0.03333333
5.174512 70.165794 133.213486 0.000000 0.000000 0.000000 5.508904 -6.731929 3.228149 23.553393 32.129165 10.287212 28.428736 15.151257 0.597299 -27.469774 3.337052 -33.658066 0.000000 0.000000 0.000000 3.193852 -4.489914 1.562677 -79.978107 -3.634344 -10.005388 55.950932 5.896695 -6.768996 16.595326 3.040626 9.468980 0.000000 0.000000 0.000000 1.757804 -3.295591 1.934871 0.257045 -1.810256 -0.000907 2.195096 -1.986111 2.604526 7.050467 -4.275807 -0.088260 0.000000 0.000000 0.000000 3.572801 -4.861010 -0.138061 2.226594 -0.097191 1.526004 0.000000 0.000000 0.000000 4.021625 -4.573843 -0.511884 -2.268204 -10.903951 -19.055480 -50.858541 -17.959579 -29.653328 -12.127677 -64.171553 10.940774 0.000000 0.000000 0.000000 3.875926 -4.519917 0.042570 -2.274581 -4.828833 -2.518604 -25.894613 31.849479 21.640819 36.672361 26.982167 -18.736102 0.000000 0.000000 0.000000 
4.275076 70.128883 136.726868 0.000000 0.000000 0.000000 7.420443 -11.049779 2.543042 22.770121 35.601664 10.150551 24.695048 16.903911 -1.046746 -13.619695 -0.737685 -31.885212 0.000000 0.000000 0.000000 4.943705 -9.775193 0.362026 -82.395891 -4.288477 -6.165292 62.100135 5.296742 -6.484997 17.141048 2.695707 6.537267 0.000000 0.000000 0.000000 4.107466 -8.871821 0.887502 0.532001 -2.357268 -0.390515 1.441790 -3.679931 3.023639 7.618447 -7.630484 1.180013 0.000000 0.000000 0.000000 4.317915 -8.246574 1.075538 1.876379 0.688673 2.155265 0.000000 0.000000 0.000000 4.519492 -8.070935 0.708051 -4.079339 -15.373537 -19.902804 -45.458908 -27.452537 -32.628022 -10.996092 -49.400559 8.693994 0.000000 0.000000 0.000000 4.427700 -7.884533 1.543714 -2.109119 -4.827477 4.379309 -11.922837 20.171166 10.202121 27.152235 20.599666 -8.451179 0.000000 0.000000 0.000000 
3.207846 70.385139 140.738022 0.000000 0.000000 0.000000 9.558118 -15.531562 1.348272 18.763658 36.890514 11.887112 23.703067 18.501915 -1.692998 3.717097 -3.824098 -25.367567 0.000000 0.000000 0.000000 7.399978 -14.755142 -1.026739 -83.812295 -4.804652 -2.633346 66.526978 4.821907 -6.492923 16.635096 3.132603 3.833468 0.000000 0.000000 0.000000 7.072612 -14.699838 -0.211545 0.738034 -2.329770 -0.389368 1.127919 -4.905299 3.288225 7.956113 -10.221901 2.347100 0.000000 0.000000 0.000000 4.854571 -10.859143 2.203081 1.376493 1.405647 2.776818 0.000000 0.000000 0.000000 4.939315 -10.812265 1.842759 -5.495694 -19.040129 -19.536745 -38.901257 -34.308443 -34.391328 -9.242574 -38.191720 6.523523 0.000000 0.000000 0.000000 4.853033 -10.422948 2.875857 -2.100502 -5.236232 9.446340 -5.374891 10.538678 4.649040 20.647524 18.278816 -2.601141 0.000000 0.000000 0.000000 
2.221523 70.613976 145.161041 0.000000 0.000000 0.000000 11.760825 -20.778486 -0.195302 13.572566 35.086033 14.372675 25.483678 19.184722 -1.043582 19.110997 -4.161350 -16.841923 0.000000 0.000000 0.000000 10.118579 -20.191639 -2.452666 -82.666442 -4.763696 1.317354 67.421631 4.998603 -6.759482 13.190361 4.544705 2.446556 0.000000 0.000000 0.000000 10.012088 -20.932464 -1.288134 0.648544 -1.996888 -0.340280 1.320741 -5.591050 3.459557 7.899551 -11.921797 3.149975 0.000000 0.000000 0.000000 4.846525 -12.593195 2.957601 0.737446 2.015374 3.339703 0.000000 0.000000 0.000000 5.033628 -12.641430 2.606121 -6.351798 -21.762134 -18.281549 -33.315238 -37.618380 -36.066435 -7.523334 -31.613233 4.339353 0.000000 0.000000 0.000000 4.877635 -12.069042 3.767389 -2.096979 -6.112522 12.166754 -4.018636 4.756579 2.902667 15.301427 18.706281 0.726086 0.000000 0.000000 0.000000 
1.404766 71.019112 149.665100 0.000000 0.000000 0.000000 13.355461 -26.457634 -1.786734 8.304982 32.173732 16.972662 29.847677 18.968245 0.126360 27.489802 -3.507776 -10.157707 0.000000 0.000000 0.000000 12.121799 -26.140498 -3.750654 -78.954036 -4.191438 4.909449 65.634423 5.682641 -6.745314 6.449435 6.577269 2.975378 0.000000 0.000000 0.000000 12.388287 -27.606672 -2.243921 0.518655 -1.315791 -0.518332 2.017622 -5.801654 3.534824 7.373808 -12.786526 3.460890 0.000000 0.000000 0.000000 4.302471 -13.477898 3.174293 0.029235 2.512051 3.777710 0.000000 0.000000 0.000000 4.726672 -13.519507 2.838014 -6.529818 -23.550255 -16.311207 -30.767629 -37.866313 -38.506308 -6.287387 -29.015224 2.253312 0.000000 0.000000 0.000000 4.412623 -12.867539 4.037525 -1.994841 -7.136159 12.792908 -5.988780 1.940280 3.303075 10.494072 20.002250 2.525513 0.000000 0.000000 0.000000 
0.715106 71.582130 153.984894 0.000000 0.000000 0.000000 13.871241 -31.958196 -3.326766 1.740417 29.553812 20.443193 38.023875 18.246606 0.830239 28.961091 -3.417400 -5.640142 0.000000 0.000000 0.000000 12.924081 -31.720741 -4.918432 -74.034415 -3.396081 7.184196 63.024573 6.429328 -5.948369 -1.415612 8.458115 5.221614 0.000000 0.000000 0.000000 13.788897 -33.995276 -2.991922 0.075774 -0.617374 -0.699125 3.026279 -5.780081 3.506443 6.585702 -12.996869 3.344534 0.000000 0.000000 0.000000 3.393841 -13.616672 2.907962 -0.644572 2.866199 4.056653 0.000000 0.000000 0.000000 4.170333 -13.603110 2.583112 -6.038723 -24.395691 -13.816794 -31.902929 -36.768418 -41.847848 -5.576133 -28.586106 0.368306 0.000000 0.000000 0.000000 3.548927 -12.984035 3.777243 -1.765591 -8.152948 11.860822 -9.733355 0.713959 4.641718 5.956311 21.235949 3.409150 0.000000 0.000000 0.000000 
